<?xml version="1.0" standalone="no"?>
<!DOCTYPE svg PUBLIC "-//W3C//DTD SVG 1.1//EN" "http://www.w3.org/Graphics/SVG/1.1/DTD/svg11.dtd" >
<svg xmlns="http://www.w3.org/2000/svg" xmlns:xlink="http://www.w3.org/1999/xlink" version="1.1">
<metadata></metadata>
<defs>
<font id="stanleyregular" horiz-adv-x="1079" >
<font-face units-per-em="2048" ascent="1638" descent="-410" />
<missing-glyph horiz-adv-x="614" />
<glyph unicode="&#xfb01;" horiz-adv-x="1198" d="M72 716v101h110v194q0 93 66 159t159 66q39 0 78 -14v-405h506v-650h207l-146 -115q-62 -48 -139 -48q-93 0 -159 66t-66 159v487h-203v-716h-303v716h-110zM688 1082q0 63 44.5 107.5t107.5 44.5t107.5 -44.5t44.5 -107.5t-44.5 -107.5t-107.5 -44.5t-107.5 44.5 t-44.5 107.5z" />
<glyph horiz-adv-x="1351" />
<glyph horiz-adv-x="1351" />
<glyph horiz-adv-x="682" />
<glyph unicode="&#xa;" horiz-adv-x="307" />
<glyph unicode="&#xd;" horiz-adv-x="1351" />
<glyph unicode=" "  horiz-adv-x="614" />
<glyph unicode="&#x09;" horiz-adv-x="614" />
<glyph unicode="&#xa0;" horiz-adv-x="614" />
<glyph unicode="!" horiz-adv-x="446" d="M72 152q0 63 44.5 107.5t107.5 44.5t107.5 -44.5t44.5 -107.5t-44.5 -107.5t-107.5 -44.5t-107.5 44.5t-44.5 107.5zM72 432v799h302v-589q0 -93 -65.5 -158.5t-158.5 -65.5q-39 0 -78 14z" />
<glyph unicode="&#x26;" horiz-adv-x="1112" d="M72 310q0 89 65.5 161.5t163 110t200.5 37.5q-60 -19 -97.5 -106t-37.5 -203q0 -112 40.5 -200t94.5 -108q-103 0 -200.5 37t-163 109.5t-65.5 161.5zM72 928q0 89 65.5 161.5t163 109.5t200.5 37q-60 -19 -97.5 -105.5t-37.5 -202.5q0 -112 40.5 -200.5t94.5 -108.5 q-103 0 -200.5 37.5t-163 110t-65.5 161.5zM625 12v585q0 77 53.5 130.5t129.5 53.5q66 0 114 -39l119 -93h-169v-465q0 -76 -54 -130t-130 -54q-29 0 -63 12zM625 1079q0 64 44.5 109t108.5 45t109 -45t45 -109t-45 -108.5t-109 -44.5t-108.5 44.5t-44.5 108.5z" />
<glyph unicode="'" horiz-adv-x="454" d="M72 1165q0 52 36.5 88.5t88.5 36.5q76 0 130.5 -54.5t54.5 -131.5q0 -64 -40 -115l-95 -120v171h-50q-52 0 -88.5 36.5t-36.5 88.5z" />
<glyph unicode="&#x2018;" horiz-adv-x="454" d="M72 1165q0 52 36.5 88.5t88.5 36.5q76 0 130.5 -54.5t54.5 -131.5q0 -64 -40 -115l-95 -120v171h-50q-52 0 -88.5 36.5t-36.5 88.5z" />
<glyph unicode="(" horiz-adv-x="530" d="M72 548q0 162 35 303.5t90.5 235.5t124.5 147.5t138 53.5q-55 -46 -89 -253.5t-34 -486.5q0 -268 37 -480t86 -260q-69 0 -138 53.5t-124.5 147.5t-90.5 235.5t-35 303.5z" />
<glyph unicode=")" horiz-adv-x="530" d="M72 -192q54 46 88 253.5t34 486.5q0 268 -37 480t-85 260q69 0 138 -53.5t124.5 -147.5t90.5 -235.5t35 -303.5t-35 -303.5t-90.5 -235.5t-124.5 -147.5t-138 -53.5z" />
<glyph unicode="+" horiz-adv-x="1124" d="M72 441v101h440v441h101v-441h440v-101h-440v-440h-101v440h-440z" />
<glyph unicode="," horiz-adv-x="454" d="M72 124q0 52 36.5 88.5t88.5 36.5q77 0 131 -54.5t54 -130.5q0 -64 -40 -115l-95 -121v171h-50q-52 0 -88.5 36.5t-36.5 88.5z" />
<glyph unicode="-" horiz-adv-x="651" d="M72 467v101h508v-101h-508z" />
<glyph unicode="." horiz-adv-x="450" d="M72 154q0 64 44.5 109t108.5 45t109 -45t45 -109t-45 -108.5t-109 -44.5t-108.5 44.5t-44.5 108.5z" />
<glyph unicode="/" horiz-adv-x="507" d="M72 0l261 1234l103 1l-262 -1235h-102z" />
<glyph unicode="0" horiz-adv-x="1060" d="M72 619q0 274 122 445t302 171q-30 -17 -48 -57t-25 -129t-8.5 -142.5t-0.5 -193.5v-94q0 -96 0.5 -151t3 -132.5t7.5 -123.5t14 -94t23.5 -76t33.5 -40q-180 0 -302 171.5t-122 445.5zM564 2q29 18 46.5 70t25 147t9.5 176t2 224v88q1 285 -14 381q-19 118 -69 147 q180 0 302.5 -171t122.5 -445t-122.5 -445.5t-302.5 -171.5z" />
<glyph unicode="1" horiz-adv-x="864" d="M72 828q0 64 44.5 109t108.5 45t109 -45t45 -109t-45 -108.5t-109 -44.5t-108.5 44.5t-44.5 108.5zM490 1v994l303 238v-1232h-303z" />
<glyph unicode="2" horiz-adv-x="1054" d="M72 81q0 93 66 159t159 66h686v-303h-897q-14 39 -14 78zM72 983q0 64 44.5 108.5t108.5 44.5t109 -44.5t45 -108.5t-45 -109t-109 -45t-108.5 45t-44.5 109zM489 558q82 46 131.5 131t49.5 187t-49.5 187t-131.5 131q71 40 154 40q139 0 237.5 -105t98.5 -253 t-98.5 -253t-237.5 -105q-83 0 -154 40z" />
<glyph unicode="3" horiz-adv-x="1015" d="M72 154q0 64 44.5 108.5t108.5 44.5t108.5 -44.5t44.5 -108.5t-44.5 -109t-108.5 -45t-108.5 45t-44.5 109zM72 1078q0 64 44.5 108.5t108.5 44.5t108.5 -44.5t44.5 -108.5t-44.5 -109t-108.5 -45t-108.5 45t-44.5 109zM426 701q79 20 140.5 95t61.5 170q0 100 -38 174.5 t-98 90.5q95 0 172.5 -14t142 -44t101 -84.5t36.5 -129.5q0 -67 -43.5 -123.5t-110 -91t-147.5 -49.5q126 -37 213.5 -132t87.5 -222q0 -77 -42 -143.5t-108.5 -109.5t-145.5 -67.5t-156 -24.5q54 23 95 123.5t41 228.5q0 127 -61 228t-141 125z" />
<glyph unicode="4" horiz-adv-x="1017" d="M72 477v756h302v-813h213l-151 -120q-62 -48 -139 -48q-93 0 -159 66t-66 159zM643 1v1220q39 14 78 14q93 0 159 -66t66 -159v-1009h-303z" />
<glyph unicode="5" horiz-adv-x="1054" d="M72 1005q0 95 67 162t161 67h669q14 -39 14 -79q0 -95 -67 -162t-161 -67h-519l1 -209l-116 147q-49 61 -49 141zM77 251q0 64 45 109t109 45t109 -45t45 -109t-45 -108.5t-109 -44.5t-109 44.5t-45 108.5zM489 41q82 46 131.5 130.5t49.5 186.5t-49.5 187t-131.5 131 q73 41 154 41q139 0 237.5 -105.5t98.5 -253.5t-98.5 -253t-237.5 -105q-81 0 -154 41z" />
<glyph unicode="6" horiz-adv-x="976" d="M72 223v787q0 93 66 159t159 66q38 0 77 -14v-1209q-39 -14 -77 -14q-93 0 -159 66t-66 159zM476 -2q60 27 98 145.5t38 276.5q0 153 -41 274.5t-95 148.5q61 0 122.5 -19t116.5 -56.5t98 -87.5t68 -118t25 -142q0 -92 -38.5 -173t-100.5 -134.5t-138.5 -84t-152.5 -30.5 zM537 1078q0 64 45 109t109 45t108.5 -45t44.5 -109t-44.5 -108.5t-108.5 -44.5t-109 44.5t-45 108.5z" />
<glyph unicode="7" horiz-adv-x="966" d="M72 1l625 1232q42 -5 76 -22q83 -42 111.5 -131t-13.5 -172l-460 -907h-339zM72 1080q0 64 44.5 108.5t108.5 44.5t109 -44.5t45 -108.5t-45 -109t-109 -45t-108.5 45t-44.5 109z" />
<glyph unicode="8" horiz-adv-x="1042" d="M72 309q0 89 65.5 161.5t163 110t200.5 37.5q-60 -19 -97.5 -106t-37.5 -203q0 -112 40.5 -200t94.5 -108q-103 0 -200.5 37t-163 109.5t-65.5 161.5zM72 927q0 89 65.5 161.5t163 110t200.5 37.5q-60 -19 -97.5 -106t-37.5 -203q0 -112 40.5 -200.5t94.5 -108.5 q-103 0 -200.5 37.5t-163 110t-65.5 161.5zM541 1q54 20 95 108t41 200q0 116 -38 203t-98 106q103 0 200.5 -37.5t163.5 -110t66 -161.5t-66 -161.5t-163.5 -109.5t-200.5 -37zM541 618q54 20 95 108.5t41 200.5q0 116 -38 203t-98 106q103 0 200.5 -37.5t163.5 -110 t66 -161.5t-66 -161.5t-163.5 -110t-200.5 -37.5z" />
<glyph unicode="9" horiz-adv-x="976" d="M72 813q0 92 38.5 173t100.5 134.5t138.5 84t152.5 30.5q-60 -27 -98 -145.5t-38 -276.5q0 -153 41 -274.5t95 -148.5q-61 0 -122.5 19t-116.5 56.5t-98 87.5t-68 118t-25 142zM133 154q0 64 45 109t109 45t108.5 -45t44.5 -109t-44.5 -108.5t-108.5 -44.5t-109 44.5 t-45 108.5zM603 12v1209q39 14 78 14q93 0 159 -66t66 -159v-787q0 -93 -66 -159t-159 -66q-39 0 -78 14z" />
<glyph unicode=":" horiz-adv-x="450" d="M72 154q0 64 44.5 109t108.5 45t109 -45t45 -109t-45 -108.5t-109 -44.5t-108.5 44.5t-44.5 108.5zM72 828q0 64 44.5 109t108.5 45t109 -45t45 -109t-45 -108.5t-109 -44.5t-108.5 44.5t-44.5 108.5z" />
<glyph unicode=";" horiz-adv-x="454" d="M72 124q0 52 36.5 88.5t88.5 36.5q77 0 131 -54.5t54 -130.5q0 -64 -40 -115l-95 -121v171h-50q-52 0 -88.5 36.5t-36.5 88.5zM73 828q0 64 45 109t109 45t108.5 -45t44.5 -109t-44.5 -108.5t-108.5 -44.5t-109 44.5t-45 108.5z" />
<glyph unicode="?" horiz-adv-x="1050" d="M72 982q0 64 44.5 108.5t108.5 44.5t109 -44.5t45 -108.5t-45 -109t-109 -45t-108.5 45t-44.5 109zM335 153q0 64 45 109t109 45t108.5 -45t44.5 -109t-44.5 -109t-108.5 -45t-109 45t-45 109zM357 620q0 77 53.5 130.5t129.5 53.5q45 0 87 10t79 30t59.5 55.5t22.5 82.5 q0 104 -76 169t-223 41q73 41 154 41q139 0 237.5 -105.5t98.5 -253.5t-98.5 -253t-237.5 -105h-154v-128l-93 119q-39 48 -39 113z" />
<glyph unicode="@" horiz-adv-x="2072" d="M72 490q0 132 45 249t126 206t189.5 154t240 98.5t273.5 33.5q-102 -29 -201 -96.5t-180 -161.5t-133 -220t-57 -260q-5 -133 21 -251t65 -195.5t93 -143.5t92.5 -98t75.5 -56q-71 0 -147 24t-148 68t-136.5 110.5t-113 146.5t-77 181.5t-28.5 210.5zM578 275 q0 115 98 196.5t237 81.5q83 0 154 -31q-81 -35 -130.5 -101.5t-49.5 -145.5t49.5 -145.5t130.5 -101.5q-74 -32 -154 -32q-139 0 -237 81.5t-98 197.5zM676 827q0 64 45 109t109 45t108.5 -45t44.5 -109t-44.5 -108.5t-108.5 -44.5t-109 44.5t-45 108.5zM1114 224v744 q39 14 78 14q93 0 158.5 -66t65.5 -159v-596l206 1l-144 -114q-63 -49 -139 -49q-93 0 -159 66t-66 159zM1265 1231q154 6 288.5 -24t234 -90t157 -155t57.5 -213q0 -76 -24.5 -151.5t-58.5 -130.5t-84 -111t-85 -87t-78.5 -66t-49.5 -41q47 90 67 203t16.5 209t-21.5 183 q-20 91 -74 177t-119 145t-124 97.5t-102 54.5z" />
<glyph unicode="A" horiz-adv-x="1130" d="M0 192q0 79 56 134.5t135 55.5t134.5 -55.5t55.5 -134.5t-55.5 -135t-134.5 -56t-135 56t-56 135zM336 897l169 336l624 -1233h-340z" />
<glyph unicode="&#xc3;" horiz-adv-x="1130" d="M0 192q0 79 56 134.5t135 55.5t134.5 -55.5t55.5 -134.5t-55.5 -135t-134.5 -56t-135 56t-56 135zM336 897l169 336l624 -1233h-340z" />
<glyph unicode="B" horiz-adv-x="1087" d="M102 14v1219h303v-1008q0 -93 -66 -159t-159 -66q-39 0 -78 14zM586 -1q54 23 95 123.5t41 228.5q0 132 -38 231t-98 121q103 0 200.5 -42.5t163.5 -125t66 -184.5t-66 -184.5t-163.5 -125t-200.5 -42.5zM586 703q54 17 95 93.5t41 172.5q0 100 -38 174.5t-98 90.5 q103 0 200.5 -32t163.5 -94t66 -139t-66 -139.5t-163.5 -94.5t-200.5 -32z" />
<glyph unicode="C" horiz-adv-x="1210" d="M78 530q-7 47 -7 93q0 114 43 222q60 151 185.5 253t288.5 129q-43 -36 -80 -79t-72.5 -102t-54.5 -124q-19 -64 -25 -144q-2 -19 -2 -38q0 -62 16 -126q28 -123 99.5 -217.5t172 -147t226.5 -69.5q44 -6 88 -6q84 0 171 21q2 1 6 1t6 1q-146 -158 -362 -189 q-47 -7 -92 -7q-117 1 -227 45q-152 62 -254 190t-126 294zM667 1040q0 79 55.5 135t134.5 56t135 -56t56 -135t-56 -134.5t-135 -55.5t-134.5 55.5t-55.5 134.5z" />
<glyph unicode="D" horiz-adv-x="1163" d="M72 14v1219h302v-1008q0 -93 -65.5 -159t-158.5 -66q-39 0 -78 14zM538 0q70 45 140.5 225t70.5 392q0 217 -67 395.5t-144 221.5q71 0 148 -27.5t149 -82.5t129.5 -128t92.5 -172t35 -207t-35 -207t-92.5 -172t-129.5 -128t-149 -82.5t-148 -27.5z" />
<glyph unicode="E" horiz-adv-x="899" d="M102 14v1219h303v-565h206v-102h-206v-341q0 -93 -66 -159t-159 -66q-39 0 -78 14zM465 0l361 301v-301h-361zM465 1234h361v-301z" />
<glyph unicode="F" horiz-adv-x="899" d="M102 14v1219h303v-565h206v-102h-206v-341q0 -93 -66 -159t-159 -66q-39 0 -78 14zM465 1234h361v-301z" />
<glyph unicode="G" horiz-adv-x="1288" d="M72 617q0 91 24.5 175.5t66.5 151t97.5 122t117 92t125 56.5t122.5 20q-70 -45 -140.5 -225t-70.5 -392q0 -217 67 -395.5t144 -221.5q-59 0 -122.5 20t-125 56.5t-117 92t-97.5 122t-66.5 151t-24.5 175.5zM732 1040q0 79 56 135t135 56t134.5 -56t55.5 -135 t-55.5 -134.5t-134.5 -55.5t-135 55.5t-56 134.5zM778 14v490q0 93 66 159t159 66q77 0 139 -48l145 -114h-206v-342q0 -93 -66 -159t-159 -66q-39 0 -78 14z" />
<glyph unicode="H" horiz-adv-x="1167" d="M102 14v1219h303v-565h206v-102h-206v-341q0 -93 -66 -159t-159 -66q-39 0 -78 14zM761 0v1008q0 93 66 159t159 66q39 0 78 -14v-1219h-303z" />
<glyph unicode="I" horiz-adv-x="507" d="M102 0v1008q0 93 66 159t159 66q39 0 78 -14v-1219h-303z" />
<glyph unicode="J" horiz-adv-x="972" d="M72 192q0 79 55.5 134.5t134.5 55.5t135 -55.5t56 -134.5t-56 -135t-135 -56t-134.5 56t-55.5 135zM598 14v1219h303v-1008q0 -93 -66 -159t-159 -66q-39 0 -78 14z" />
<glyph unicode="K" horiz-adv-x="1087" d="M102 1v1232h303v-1232h-303zM405 404l235 196l374 -599h-357zM640 921v312h374z" />
<glyph unicode="L" horiz-adv-x="897" d="M102 14v1219h303v-1008q0 -93 -66 -159t-159 -66q-39 0 -78 14zM464 0l361 301v-301h-361z" />
<glyph unicode="M" horiz-adv-x="1650" d="M102 -1v985l303 238v-1223h-303zM461 1055l151 119q62 48 140 48q93 0 158.5 -66t65.5 -159v-998h-302v1058zM1039 1060l145 114q62 48 139 48q93 0 159 -66t66 -159v-998h-303v1061h-206z" />
<glyph unicode="N" d="M102 -1v996l303 238v-1234h-303zM461 1066l151 119q62 48 140 48q93 0 158.5 -66t65.5 -159v-1009h-302v1069z" />
<glyph unicode="O" horiz-adv-x="1355" d="M72 616q0 108 37 207t97 172t135 127.5t153.5 82.5t149.5 28q-80 -44 -155 -223.5t-75 -393.5q0 -209 78.5 -389t151.5 -227q-71 0 -149.5 27.5t-153.5 82.5t-135 127.5t-97 171.5t-37 207zM712 0q73 47 151.5 227t78.5 389q0 214 -75 393.5t-155 223.5q71 0 149.5 -28 t153.5 -82.5t135 -127.5t97 -172t37 -207t-37 -207t-97 -171.5t-135 -127.5t-153.5 -82.5t-149.5 -27.5z" />
<glyph unicode="&#xd5;" horiz-adv-x="1355" d="M72 616q0 108 37 207t97 172t135 127.5t153.5 82.5t149.5 28q-80 -44 -155 -223.5t-75 -393.5q0 -209 78.5 -389t151.5 -227q-71 0 -149.5 27.5t-153.5 82.5t-135 127.5t-97 171.5t-37 207zM712 0q73 47 151.5 227t78.5 389q0 214 -75 393.5t-155 223.5q71 0 149.5 -28 t153.5 -82.5t135 -127.5t97 -172t37 -207t-37 -207t-97 -171.5t-135 -127.5t-153.5 -82.5t-149.5 -27.5z" />
<glyph unicode="P" horiz-adv-x="1159" d="M102 1v1232h303v-1232h-303zM437 1204q81 28 161 28q81 0 162 -29q94 -33 167 -99.5t111.5 -151t46.5 -182.5q1 -18 1 -36q0 -79 -28 -156q-33 -93 -98.5 -165t-148.5 -111t-179 -48q-21 -2 -41 -2q-75 0 -149 26q104 36 184 113.5t118 185.5q28 77 28 156q0 19 -1 37 q-8 98 -46.5 181.5t-111.5 150t-167 99.5z" />
<glyph unicode="Q" horiz-adv-x="1355" d="M72 616q0 108 37 207t97 172t135 127.5t153.5 82.5t149.5 28q-80 -44 -155 -223.5t-75 -393.5q0 -209 78.5 -389t151.5 -227q-71 0 -149.5 27.5t-153.5 82.5t-135 127.5t-97 171.5t-37 207zM712 1233q71 0 149.5 -28t153.5 -82.5t135 -127.5t97 -172t37 -207 q0 -87 -24.5 -169.5t-66 -147.5t-96.5 -119.5t-115.5 -92.5t-124.5 -60v-27h219q77 0 131.5 -54.5t54.5 -131.5q0 -34 -12 -64h-341q-77 0 -131 54.5t-54 131.5q0 34 12 65q9 25 26 47l12 15q67 91 117.5 239t50.5 314q0 214 -75 393.5t-155 223.5z" />
<glyph unicode="R" horiz-adv-x="1095" d="M102 1v1232h303v-1232h-303zM414 404l213 178q35 50 56.5 129.5t21.5 169.5q0 132 -38 231t-98 121q103 0 200.5 -42.5t163.5 -125t66 -184.5q0 -123 -91 -214t-223 -124l339 -542h-357z" />
<glyph unicode="S" horiz-adv-x="1040" d="M72 899q0 148 111 248q95 84 221 84q-49 0 -83 -34t-34 -83q0 -51 38 -86q2 -2 267.5 -224t272.5 -229q104 -99 104 -242q0 -148 -111 -248q-95 -84 -221 -84q49 0 83 34t34 83q0 52 -38 87q-2 2 -267.5 224t-272.5 229q-104 99 -104 241zM75 191q0 79 55.5 134.5 t134.5 55.5t135 -55.5t56 -134.5t-56 -135t-135 -56t-134.5 56t-55.5 135zM529 1233h374v-312z" />
<glyph unicode="T" horiz-adv-x="1255" d="M31 921v312h374zM476 1v1232h303v-1232h-303zM849 1233h375v-312z" />
<glyph unicode="U" d="M102 224v1009h303v-1068l213 1l-152 -119q-61 -47 -139 -47q-93 0 -159 65.5t-66 158.5zM674 0v1233h302v-1233h-302z" />
<glyph unicode="V" horiz-adv-x="1130" d="M0 1233h340l454 -898l-170 -335zM748 1040q0 79 56 135t135 56t134.5 -56t55.5 -135t-55.5 -134.5t-134.5 -55.5t-135 55.5t-56 134.5z" />
<glyph unicode="W" horiz-adv-x="1746" d="M0 1233h340l459 -899l-170 -335zM616 1232h340l453 -898l-169 -335zM1364 1039q0 79 55.5 135t134.5 56t135 -56t56 -135t-56 -134.5t-135 -55.5t-134.5 55.5t-55.5 134.5z" />
<glyph unicode="X" horiz-adv-x="1024" d="M31 -1l175 346l175 -346h-350zM31 1233h340l621 -1234h-339zM642 1233h350l-175 -346z" />
<glyph unicode="Y" horiz-adv-x="1042" d="M72 1232h340l326 -647v-584h-302v512zM664 1079q0 64 45 108.5t109 44.5t108.5 -44.5t44.5 -108.5t-44.5 -109t-108.5 -45t-109 45t-45 109z" />
<glyph unicode="&#xdd;" horiz-adv-x="1042" d="M72 1232h340l326 -647v-584h-302v512zM664 1079q0 64 45 108.5t109 44.5t108.5 -44.5t44.5 -108.5t-44.5 -109t-108.5 -45t-109 45t-45 109z" />
<glyph unicode="Z" horiz-adv-x="1107" d="M72 0l625 1232h340l-626 -1232h-339zM72 921v312h374zM662 0l375 312v-312h-375z" />
<glyph unicode="\" horiz-adv-x="507" d="M72 1235l103 -1l261 -1234h-103z" />
<glyph unicode="_" horiz-adv-x="1159" d="M72 -147h1016v-101h-1016v101z" />
<glyph unicode="a" horiz-adv-x="1118" d="M72 275q0 116 98 197.5t237 81.5q80 0 154 -32q-81 -35 -130.5 -101.5t-49.5 -145.5t49.5 -145.5t130.5 -101.5q-71 -31 -154 -31q-139 0 -237 81.5t-98 196.5zM170 828q0 64 45 109t109 45t108.5 -45t44.5 -109t-44.5 -108.5t-108.5 -44.5t-109 44.5t-45 108.5zM608 225 v744q39 14 78 14q93 0 159 -66t66 -159v-596h205l-144 -114q-62 -48 -139 -48q-93 0 -159 66t-66 159z" />
<glyph unicode="&#xe3;" horiz-adv-x="1118" d="M72 275q0 116 98 197.5t237 81.5q80 0 154 -32q-81 -35 -130.5 -101.5t-49.5 -145.5t49.5 -145.5t130.5 -101.5q-71 -31 -154 -31q-139 0 -237 81.5t-98 196.5zM170 828q0 64 45 109t109 45t108.5 -45t44.5 -109t-44.5 -108.5t-108.5 -44.5t-109 44.5t-45 108.5zM608 225 v744q39 14 78 14q93 0 159 -66t66 -159v-596h205l-144 -114q-62 -48 -139 -48q-93 0 -159 66t-66 159z" />
<glyph unicode="b" horiz-adv-x="1159" d="M102 14v1219h303v-1008q0 -93 -66 -159t-159 -66q-39 0 -78 14zM437 29l9 3q94 33 167 99.5t111 150.5q39 84 47 182q1 18 1 37q0 79 -28 156q-38 107 -118 184.5t-184 113.5q74 26 149 26q20 0 41 -2q96 -9 179 -48t148.5 -111t98.5 -165q28 -77 28 -156q0 -19 -1 -37 q-8 -98 -46.5 -182t-111.5 -150.5t-167 -99.5q-81 -29 -162 -29q-80 0 -161 28z" />
<glyph unicode="c" horiz-adv-x="974" d="M56 423q-5 37 -5 74q-1 91 33 177q48 120 148.5 202t230.5 103q-75 -81 -109 -187q-24 -73 -24 -149q0 -35 5 -71q19 -132 101 -235q80 -103 202 -151q87 -35 181 -35q36 0 73 5q6 0 9 1q-117 -125 -287 -150q-37 -5 -74 -5q-93 0 -180 34q-122 48 -203.5 151.5 t-100.5 235.5zM557 828q0 64 45 109t109 45t108.5 -45t44.5 -109t-44.5 -108.5t-108.5 -44.5t-109 44.5t-45 108.5z" />
<glyph unicode="d" horiz-adv-x="1263" d="M73 462q-1 18 -1 37q0 79 28 156q33 93 98.5 165t148.5 111t179 48q21 2 41 2q75 0 149 -26q-104 -36 -184 -113.5t-118 -184.5q-28 -77 -28 -156q0 -19 1 -37q8 -98 46.5 -182t111.5 -150.5t167 -99.5l9 -3q-81 -28 -161 -28q-82 0 -163 29q-94 33 -166.5 99.5 t-111 150.5t-46.5 182zM753 225v1011h302v-1073h208l-146 -115q-62 -48 -140 -48q-93 0 -158.5 66t-65.5 159z" />
<glyph unicode="e" horiz-adv-x="1024" d="M77 423q-5 37 -5 74q0 92 34 178q48 121 148.5 203t230.5 104q-76 -81 -110 -188q-23 -73 -23 -149q0 -36 5 -72q19 -133 101 -236t204 -152q88 -35 182 -35q36 0 73 5q6 0 9 1q-118 -126 -289 -151q-37 -5 -73 -5q-94 0 -182 35q-122 49 -204 152t-101 236zM461 471 l230 179q2 7 3.5 20t-0.5 52t-12 77t-38.5 89.5t-73.5 94.5q84 0 164 -33.5t139 -99.5q59 -64 75 -160q4 -24 3 -51q0 -76 -33 -168h-457z" />
<glyph unicode="f" horiz-adv-x="753" d="M102 -3v1011q0 93 66 159t159 66q39 0 78 -14v-650h206v-101h-206v-471h-303zM503 1108q0 52 36.5 88.5t88.5 36.5t88.5 -36.5t36.5 -88.5t-36.5 -88.5t-88.5 -36.5t-88.5 36.5t-36.5 88.5z" />
<glyph unicode="g" horiz-adv-x="1015" d="M72 575q0 89 37.5 167.5t97 130t133 81t147.5 29.5q-58 -25 -94.5 -139.5t-36.5 -268.5q0 -148 39.5 -264.5t91.5 -143.5q-74 0 -147.5 29.5t-133 81t-97 130t-37.5 167.5zM74 -65q0 65 40 114l93 118v-168h550q52 0 94.5 -26t66.5 -70q7 -11 14 -33q4 -12 5 -18 q3 -18 3 -37v-16q0 -1 -0.5 -1t-0.5 -1l-2 -15q-8 -45 -36 -81l-93 -118v168h-550q-76 0 -130 53.5t-54 130.5zM106 -481q0 66 39 114l93 118v-168h460q11 -31 11 -64q0 -77 -53.5 -130t-129.5 -53h-236q-77 0 -130.5 53.5t-53.5 129.5zM526 167q52 27 91.5 143.5 t39.5 264.5q0 154 -36.5 268.5t-94.5 139.5q59 0 118 -18.5t112 -54.5t94.5 -84.5t65.5 -113.5t24 -137t-24 -137t-65.5 -113.5t-94.5 -84.5t-112 -54.5t-118 -18.5zM712 982v251h301z" />
<glyph unicode="h" d="M102 1v1232h303v-1232h-303zM461 814l151 120q62 48 140 48q93 0 158.5 -66t65.5 -159v-756h-302v813h-213z" />
<glyph unicode="i" horiz-adv-x="614" d="M102 226v588h303v-650h208l-147 -115q-62 -48 -139 -48q-93 0 -159 66t-66 159zM102 1079q0 63 44.5 107.5t107.5 44.5t107.5 -44.5t44.5 -107.5t-44.5 -107.5t-107.5 -44.5t-107.5 44.5t-44.5 107.5z" />
<glyph unicode="j" horiz-adv-x="708" d="M-102 -95q0 64 44.5 109t108.5 45t109 -45t45 -109t-45 -108.5t-109 -44.5t-108.5 44.5t-44.5 108.5zM300 1079q0 63 44.5 107.5t107.5 44.5t107.5 -44.5t44.5 -107.5t-44.5 -107.5t-107.5 -44.5t-107.5 44.5t-44.5 107.5zM302 -234v1048h302v-838q0 -93 -66 -159 t-159 -66q-35 0 -77 15z" />
<glyph unicode="k" horiz-adv-x="983" d="M72 0v994l302 239v-1233h-302zM374 404l235 195l375 -599h-357zM609 691v292h350z" />
<glyph unicode="l" horiz-adv-x="614" d="M102 225v1008h303v-1070h208l-147 -115q-62 -48 -139 -48q-93 0 -159 66t-66 159z" />
<glyph unicode="m" horiz-adv-x="1650" d="M102 0v744l303 239v-983h-303zM461 815l152 120q62 48 139 48q93 0 158.5 -66t65.5 -159v-758h-302v817zM1039 821l145 114q62 48 139 48q93 0 159 -66t66 -159v-758h-303v821h-206z" />
<glyph unicode="n" d="M102 0v744l303 239v-983h-303zM461 815l151 120q62 48 140 48q93 0 158.5 -66t65.5 -159v-758h-302v817z" />
<glyph unicode="o" horiz-adv-x="1107" d="M31 491q0 108 45 202t117 156.5t160.5 98t177.5 35.5q-70 -31 -114 -168.5t-44 -323.5q0 -178 47.5 -318.5t110.5 -172.5q-89 0 -177.5 35.5t-160.5 97.5t-117 156t-45 202zM578 0q63 32 110.5 172.5t47.5 318.5q0 186 -44 323.5t-114 168.5q89 0 177.5 -35.5t160.5 -98 t117 -156.5t45 -202t-45 -202t-117 -156t-160.5 -97.5t-177.5 -35.5z" />
<glyph unicode="&#xf5;" horiz-adv-x="1107" d="M31 491q0 108 45 202t117 156.5t160.5 98t177.5 35.5q-70 -31 -114 -168.5t-44 -323.5q0 -178 47.5 -318.5t110.5 -172.5q-89 0 -177.5 35.5t-160.5 97.5t-117 156t-45 202zM578 0q63 32 110.5 172.5t47.5 318.5q0 186 -44 323.5t-114 168.5q89 0 177.5 -35.5t160.5 -98 t117 -156.5t45 -202t-45 -202t-117 -156t-160.5 -97.5t-177.5 -35.5z" />
<glyph unicode="p" horiz-adv-x="1159" d="M102 -248v1218q39 14 78 14q93 0 159 -66t66 -159v-1007h-303zM437 955q81 28 161 28q81 0 162 -29q94 -33 167 -99.5t111.5 -151t46.5 -181.5q1 -19 1 -37q0 -79 -28 -156q-33 -93 -98.5 -165t-148.5 -111t-179 -48q-21 -2 -41 -2q-75 0 -149 26q104 36 184 113.5 t118 185.5q28 77 28 156q0 18 -1 36q-8 98 -46.5 182t-111.5 150.5t-167 99.5z" />
<glyph unicode="q" horiz-adv-x="1159" d="M73 522q8 97 46.5 181.5t111 151t166.5 99.5q81 29 163 29q80 0 161 -28l-9 -3q-94 -33 -167 -99.5t-111.5 -150.5t-46.5 -182q-1 -18 -1 -36q0 -79 28 -156q38 -108 118 -185.5t184 -113.5q-74 -26 -149 -26q-20 0 -41 2q-96 9 -179 48t-148.5 111t-98.5 165 q-28 77 -28 156q0 18 1 37zM753 -248v1007q0 93 65.5 159t158.5 66q39 0 78 -14v-1218h-302z" />
<glyph unicode="r" horiz-adv-x="794" d="M72 1v983h302v-983h-302zM486 829q0 64 45 109t109 45t108.5 -45t44.5 -109t-44.5 -108.5t-108.5 -44.5t-109 44.5t-45 108.5z" />
<glyph unicode="s" horiz-adv-x="860" d="M72 717q0 118 88 198q75 67 177 67q-39 0 -66.5 -27t-27.5 -66q0 -41 31 -69q1 -1 107 -90t213.5 -179t110.5 -93q83 -78 83 -192q0 -117 -89 -198q-75 -67 -176 -67q39 0 66 27t27 66q0 42 -30 69q-1 1 -107 89.5t-213.5 178.5t-110.5 93q-83 78 -83 193zM74 153 q0 63 44.5 107.5t107.5 44.5t107.5 -44.5t44.5 -107.5t-44.5 -107.5t-107.5 -44.5t-107.5 44.5t-44.5 107.5zM387 982h350v-292z" />
<glyph unicode="t" horiz-adv-x="610" d="M72 225v769l302 239v-250h206v-101h-206v-720h206l-144 -114q-62 -48 -139 -48q-93 0 -159 66t-66 159z" />
<glyph unicode="u" d="M102 225v758h303v-817l213 2l-152 -120q-62 -48 -139 -48q-93 0 -159 66t-66 159zM674 0v983h302v-983h-302z" />
<glyph unicode="v" horiz-adv-x="870" d="M-31 983h340l327 -648l-170 -335zM562 829q0 64 45 109t109 45t108.5 -45t44.5 -109t-44.5 -108.5t-108.5 -44.5t-109 44.5t-45 108.5z" />
<glyph unicode="w" horiz-adv-x="1368" d="M-31 983h340l327 -648l-170 -335zM466 983h340l327 -648l-169 -335zM1059 829q0 64 45 109t109 45t108.5 -45t44.5 -109t-44.5 -108.5t-108.5 -44.5t-109 44.5t-45 108.5z" />
<glyph unicode="x" horiz-adv-x="899" d="M31 0l175 346l175 -346h-350zM31 983h340l496 -983h-339zM517 983h350l-175 -346z" />
<glyph unicode="y" horiz-adv-x="899" d="M0 983h340l327 -648l-170 -335zM168 -125q0 52 36.5 88.5t88.5 36.5t88.5 -36.5t36.5 -88.5t-36.5 -88.5t-88.5 -36.5t-88.5 36.5t-36.5 88.5zM593 829q0 64 44.5 109t108.5 45t109 -45t45 -109t-45 -108.5t-109 -44.5t-108.5 44.5t-44.5 108.5z" />
<glyph unicode="&#xfd;" horiz-adv-x="899" d="M0 983h340l327 -648l-170 -335zM168 -125q0 52 36.5 88.5t88.5 36.5t88.5 -36.5t36.5 -88.5t-36.5 -88.5t-88.5 -36.5t-88.5 36.5t-36.5 88.5zM593 829q0 64 44.5 109t108.5 45t109 -45t45 -109t-45 -108.5t-109 -44.5t-108.5 44.5t-44.5 108.5z" />
<glyph unicode="z" horiz-adv-x="980" d="M72 0l496 983h340l-497 -983h-339zM72 691v292h350zM558 0l350 292v-292h-350z" />
<glyph unicode="&#xad;" horiz-adv-x="1351" />
<glyph unicode="&#xb0;" horiz-adv-x="473" d="M72 831q0 67 49 111t108 44q-22 -10 -35.5 -53t-13.5 -102q0 -57 14.5 -101t34.5 -54q-59 0 -108 44t-49 111zM244 676q20 10 35 54.5t15 100.5q0 59 -14 102t-36 53q59 0 108.5 -44t49.5 -111t-49.5 -111t-108.5 -44z" />
<glyph unicode="&#xc0;" horiz-adv-x="1150" d="M0 154q0 64 45 108.5t109 44.5t108.5 -44.5t44.5 -108.5t-44.5 -109t-108.5 -45t-109 45t-45 109zM289 1540h239v-199zM358 898l170 335l624 -1233h-340z" />
<glyph unicode="&#xc1;" horiz-adv-x="1150" d="M0 154q0 64 45 108.5t109 44.5t108.5 -44.5t44.5 -108.5t-44.5 -109t-108.5 -45t-109 45t-45 109zM358 898l170 335l624 -1233h-340zM528 1341v199h238z" />
<glyph unicode="&#xc2;" horiz-adv-x="1150" d="M0 154q0 64 45 108.5t109 44.5t108.5 -44.5t44.5 -108.5t-44.5 -109t-108.5 -45t-109 45t-45 109zM358 898l170 335l624 -1233h-340zM360 1341l168 140l167 -140h-335z" />
<glyph unicode="&#xc4;" horiz-adv-x="1150" d="M0 154q0 64 45 108.5t109 44.5t108.5 -44.5t44.5 -108.5t-44.5 -109t-108.5 -45t-109 45t-45 109zM358 898l170 335l624 -1233h-340zM360 1411q0 29 21 49.5t49 20.5t49 -20.5t21 -49.5q0 -28 -20.5 -48.5t-49.5 -20.5t-49.5 20.5t-20.5 48.5zM556 1411q0 29 21 49.5 t49 20.5t48.5 -20.5t20.5 -49.5t-20.5 -49t-48.5 -20q-29 0 -49.5 20.5t-20.5 48.5z" />
<glyph unicode="&#xc6;" horiz-adv-x="1849" d="M72 193q0 79 55.5 134.5t134.5 55.5t135 -55.5t56 -134.5t-56 -135t-135 -56t-134.5 56t-55.5 135zM407 898l170 336l476 -942v941h303v-565h206v-101h-206v-566h-495zM1416 1l361 301v-301h-361zM1416 1234h361v-300z" />
<glyph unicode="&#xc7;" horiz-adv-x="1210" d="M78 526q-24 164 36 315t185.5 253t288.5 129q-43 -36 -80 -79t-72.5 -102t-54.5 -123.5t-25.5 -144t14.5 -163.5q36 -161 154 -266.5t274.5 -142t328.5 -11.5q2 1 6 1t6 1q-146 -158 -362 -189q-166 -24 -318.5 37.5t-254.5 190t-126 294.5zM486 -256l238 199v-199h-238z M745 1074q0 64 45 108.5t109 44.5t109 -44.5t45 -108.5t-45 -109t-109 -45t-109 45t-45 109z" />
<glyph unicode="&#xc8;" horiz-adv-x="899" d="M102 15v1219h303v-565h206v-101h-206v-342q0 -93 -66 -159t-159 -66q-39 0 -78 14zM345 1542h239v-199zM465 1l361 301v-301h-361zM465 1235h361v-301z" />
<glyph unicode="&#xc9;" horiz-adv-x="899" d="M102 15v1219h303v-565h206v-101h-206v-342q0 -93 -66 -159t-159 -66q-39 0 -78 14zM345 1343v199h239zM465 1l361 301v-301h-361zM465 1235h361v-301z" />
<glyph unicode="&#xca;" horiz-adv-x="899" d="M102 15v1219h303v-565h206v-101h-206v-342q0 -93 -66 -159t-159 -66q-39 0 -78 14zM297 1402l167 140l168 -140h-335zM465 1l361 301v-301h-361zM465 1235h361v-301z" />
<glyph unicode="&#xcb;" horiz-adv-x="899" d="M102 15v1219h303v-565h206v-101h-206v-342q0 -93 -66 -159t-159 -66q-39 0 -78 14zM297 1413q0 29 20.5 49t48.5 20q29 0 49.5 -20.5t20.5 -48.5q0 -29 -21 -49.5t-49 -20.5t-48.5 20.5t-20.5 49.5zM465 1l361 301v-301h-361zM465 1235h361v-301zM493 1413q0 29 20.5 49 t48.5 20q29 0 49.5 -20.5t20.5 -48.5q0 -29 -21 -49.5t-49 -20.5t-48.5 20.5t-20.5 49.5z" />
<glyph unicode="&#xcc;" horiz-adv-x="595" d="M102 1542h239v-199zM189 -1v1008q0 93 66 159t159 66q39 0 78 -14v-1219h-303z" />
<glyph unicode="&#xcd;" horiz-adv-x="595" d="M102 -1v1008q0 93 66 159t159 66q39 0 78 -14v-1219h-303zM254 1343v199h238z" />
<glyph unicode="&#xce;" horiz-adv-x="540" d="M102 1402l168 140l167 -140h-335zM118 -1v1008q0 93 66 159t159 66q39 0 78 -14v-1219h-303z" />
<glyph unicode="&#xcf;" horiz-adv-x="540" d="M102 1413q0 28 20.5 48.5t49.5 20.5t49.5 -20.5t20.5 -48.5q0 -29 -21 -49.5t-49 -20.5t-49 20.5t-21 49.5zM118 -1v1008q0 93 66 159t159 66q39 0 78 -14v-1219h-303zM298 1413q0 28 20.5 48.5t49.5 20.5q28 0 48.5 -20t20.5 -49t-20.5 -49.5t-48.5 -20.5t-49 20.5 t-21 49.5z" />
<glyph unicode="&#xd1;" d="M102 -1v996l303 238v-1234h-303zM349 1474q2 38 30 66q-11 -10 -11 -25t11 -26q10 -10 28 -10l107 9q108 10 110 10q44 2 76 -30t29 -79q-2 -40 -29 -67q10 10 10 25t-10 26q-11 11 -28 11l-108 -10q-107 -9 -109 -9q-44 -2 -76 30q-33 33 -30 79zM461 1066l151 119 q62 48 140 48q93 0 158.5 -65.5t65.5 -158.5v-1010h-302v1069z" />
<glyph unicode="&#xd2;" horiz-adv-x="1355" d="M72 624q0 108 37 207t97 171.5t135 127.5t153.5 82.5t149.5 27.5q-80 -44 -155 -223t-75 -393q0 -209 78.5 -389t151.5 -227q-71 0 -149.5 27.5t-153.5 82.5t-135 127.5t-97 171.5t-37 207zM474 1542h238v-199zM712 8q73 47 151.5 227t78.5 389q0 214 -75 393t-155 223 q71 0 149.5 -27.5t153.5 -82.5t135 -127.5t97 -171.5t37 -207t-37 -207t-97 -171.5t-135 -127.5t-153.5 -82.5t-149.5 -27.5z" />
<glyph unicode="&#xd3;" horiz-adv-x="1355" d="M72 624q0 108 37 207t97 171.5t135 127.5t153.5 82.5t149.5 27.5q-80 -44 -155 -223t-75 -393q0 -209 78.5 -389t151.5 -227q-71 0 -149.5 27.5t-153.5 82.5t-135 127.5t-97 171.5t-37 207zM644 1343v199h239zM712 8q73 47 151.5 227t78.5 389q0 214 -75 393t-155 223 q71 0 149.5 -27.5t153.5 -82.5t135 -127.5t97 -171.5t37 -207t-37 -207t-97 -171.5t-135 -127.5t-153.5 -82.5t-149.5 -27.5z" />
<glyph unicode="&#xd4;" horiz-adv-x="1355" d="M72 624q0 108 37 207t97 171.5t135 127.5t153.5 82.5t149.5 27.5q-80 -44 -155 -223t-75 -393q0 -209 78.5 -389t151.5 -227q-71 0 -149.5 27.5t-153.5 82.5t-135 127.5t-97 171.5t-37 207zM511 1402l167 140l168 -140h-335zM712 8q73 47 151.5 227t78.5 389 q0 214 -75 393t-155 223q71 0 149.5 -27.5t153.5 -82.5t135 -127.5t97 -171.5t37 -207t-37 -207t-97 -171.5t-135 -127.5t-153.5 -82.5t-149.5 -27.5z" />
<glyph unicode="&#xd6;" horiz-adv-x="1355" d="M72 624q0 108 37 207t97 171.5t135 127.5t153.5 82.5t149.5 27.5q-80 -44 -155 -223t-75 -393q0 -209 78.5 -389t151.5 -227q-71 0 -149.5 27.5t-153.5 82.5t-135 127.5t-97 171.5t-37 207zM511 1413q0 29 20.5 49t48.5 20q29 0 49.5 -20.5t20.5 -48.5q0 -29 -21 -49.5 t-49 -20.5t-48.5 20.5t-20.5 49.5zM706 1413q0 28 20.5 48.5t49.5 20.5t49.5 -20.5t20.5 -48.5q0 -29 -21 -49.5t-49 -20.5t-49 20.5t-21 49.5zM712 8q73 47 151.5 227t78.5 389q0 214 -75 393t-155 223q71 0 149.5 -27.5t153.5 -82.5t135 -127.5t97 -171.5t37 -207 t-37 -207t-97 -171.5t-135 -127.5t-153.5 -82.5t-149.5 -27.5z" />
<glyph unicode="&#xd9;" d="M102 224v1009h303v-1068l213 2l-152 -120q-62 -48 -139 -48q-93 0 -159 66t-66 159zM420 1542h239v-199zM674 -1v1234h302v-1234h-302z" />
<glyph unicode="&#xda;" d="M102 224v1009h303v-1068l213 2l-152 -120q-62 -48 -139 -48q-93 0 -159 66t-66 159zM405 1343v199h239zM674 -1v1234h302v-1234h-302z" />
<glyph unicode="&#xdb;" d="M102 224v1009h303v-1068l213 2l-152 -120q-62 -48 -139 -48q-93 0 -159 66t-66 159zM372 1402l167 140l168 -140h-335zM674 -1v1234h302v-1234h-302z" />
<glyph unicode="&#xdc;" d="M102 224v1009h303v-1068l213 2l-152 -120q-62 -48 -139 -48q-93 0 -159 66t-66 159zM372 1413q0 28 20.5 48.5t49.5 20.5q28 0 48.5 -20t20.5 -49t-20.5 -49.5t-48.5 -20.5t-49 20.5t-21 49.5zM568 1413q0 29 20 49t49 20t49.5 -20.5t20.5 -48.5q0 -29 -20.5 -49.5 t-49.5 -20.5q-28 0 -48.5 20.5t-20.5 49.5zM674 -1v1234h302v-1234h-302z" />
<glyph unicode="&#xe0;" horiz-adv-x="1116" d="M72 278q0 116 98 197.5t237 81.5q80 0 154 -32q-81 -35 -130.5 -101.5t-49.5 -145.5t49.5 -145.5t130.5 -101.5q-71 -31 -154 -31q-139 0 -237 81.5t-98 196.5zM170 831q0 64 45 109t109 45t108.5 -45t44.5 -109t-44.5 -109t-108.5 -45t-109 45t-45 109zM358 1236h239 v-199zM608 228v744q39 14 78 14q93 0 158.5 -66t65.5 -159v-596h206l-144 -114q-62 -48 -139 -48q-93 0 -159 66t-66 159z" />
<glyph unicode="&#xe1;" horiz-adv-x="1118" d="M72 278q0 116 98 197.5t237 81.5q80 0 154 -32q-81 -35 -130.5 -101.5t-49.5 -145.5t49.5 -145.5t130.5 -101.5q-71 -31 -154 -31q-139 0 -237 81.5t-98 196.5zM170 831q0 64 45 109t109 45t108.5 -45t44.5 -109t-44.5 -109t-108.5 -45t-109 45t-45 109zM477 1037v199 h239zM608 228v744q39 14 78 14q93 0 159 -66t66 -159v-596h205l-144 -114q-62 -48 -139 -48q-93 0 -159 66t-66 159z" />
<glyph unicode="&#xe2;" horiz-adv-x="1118" d="M72 278q0 116 98 197.5t237 81.5q80 0 154 -32q-81 -35 -130.5 -101.5t-49.5 -145.5t49.5 -145.5t130.5 -101.5q-71 -31 -154 -31q-139 0 -237 81.5t-98 196.5zM170 831q0 64 45 109t109 45t108.5 -45t44.5 -109t-44.5 -109t-108.5 -45t-109 45t-45 109zM394 1096 l167 140l168 -140h-335zM608 228v744q39 14 78 14q93 0 159 -66t66 -159v-596h205l-144 -114q-62 -48 -139 -48q-93 0 -159 66t-66 159z" />
<glyph unicode="&#xe4;" horiz-adv-x="1118" d="M72 278q0 116 98 197.5t237 81.5q80 0 154 -32q-81 -35 -130.5 -101.5t-49.5 -145.5t49.5 -145.5t130.5 -101.5q-71 -31 -154 -31q-139 0 -237 81.5t-98 196.5zM170 831q0 64 45 109t109 45t108.5 -45t44.5 -109t-44.5 -109t-108.5 -45t-109 45t-45 109zM394 1166 q0 28 20 48.5t49 20.5t49.5 -20.5t20.5 -48.5t-20.5 -49t-49.5 -21q-28 0 -48.5 20.5t-20.5 49.5zM590 1166q0 28 20 48.5t49 20.5t49.5 -20.5t20.5 -48.5t-20.5 -49t-49.5 -21q-28 0 -48.5 20.5t-20.5 49.5zM608 228v744q39 14 78 14q93 0 159 -66t66 -159v-596h205 l-144 -114q-62 -48 -139 -48q-93 0 -159 66t-66 159z" />
<glyph unicode="&#xe6;" horiz-adv-x="1585" d="M72 278q0 116 98 197.5t237 81.5q80 0 154 -32q-81 -35 -130.5 -101.5t-49.5 -145.5t49.5 -145.5t130.5 -101.5q-71 -31 -154 -31q-139 0 -237 81.5t-98 196.5zM170 831q0 64 45 109t109 45t108.5 -45t44.5 -109t-44.5 -109t-108.5 -45t-109 45t-45 109zM608 472v500 q39 14 78 14q98 0 166 -75q91 57 195 75q-76 -81 -110 -188t-18 -221q19 -133 101 -236t204 -152t255 -30q6 0 9 1q-118 -126 -289 -151q-127 -18 -251 26q-121 43 -210 136t-118 214q-6 28 -8 42q-2 15 -4 45zM1023 475l230 179q2 7 3.5 20t-0.5 52t-12 77t-39 89.5 t-74 94.5q84 0 164 -33.5t139.5 -99t75 -161t-29.5 -218.5h-457z" />
<glyph unicode="&#xe7;" horiz-adv-x="954" d="M36 421q-19 131 28.5 251t147.5 201.5t230 102.5q-75 -80 -109.5 -186.5t-18.5 -220.5q19 -132 100.5 -234.5t203.5 -151t254 -29.5q6 0 9 1q-117 -125 -288 -150q-132 -19 -253.5 29.5t-203 151.5t-100.5 235zM298 -256l238 199v-199h-238zM536 826q0 64 45 108.5 t109 44.5t109 -44.5t45 -108.5t-45 -109t-109 -45t-109 45t-45 109z" />
<glyph unicode="&#xe8;" horiz-adv-x="1024" d="M77 423q-19 131 28.5 252t148.5 203t231 104q-76 -81 -110 -188t-18 -221q19 -133 101 -236t204 -152t255 -30q6 0 9 1q-118 -126 -289 -151q-133 -19 -255 30t-204 152t-101 236zM331 1234h239v-199zM461 471l230 179q2 7 3.5 20t-0.5 52t-12 77t-38.5 89.5t-73.5 94.5 q84 0 164 -33.5t139 -99t74.5 -161t-29.5 -218.5h-457z" />
<glyph unicode="&#xe9;" horiz-adv-x="1024" d="M77 423q-19 131 28.5 252t148.5 203t231 104q-76 -81 -110 -188t-18 -221q19 -133 101 -236t204 -152t255 -30q6 0 9 1q-118 -126 -289 -151q-133 -19 -255 30t-204 152t-101 236zM461 471l230 179q2 7 3.5 20t-0.5 52t-12 77t-38.5 89.5t-73.5 94.5q84 0 164 -33.5 t139 -99t74.5 -161t-29.5 -218.5h-457zM485 1035v199h239z" />
<glyph unicode="&#xea;" horiz-adv-x="1024" d="M77 423q-19 131 28.5 252t148.5 203t231 104q-76 -81 -110 -188t-18 -221q19 -133 101 -236t204 -152t255 -30q6 0 9 1q-118 -126 -289 -151q-133 -19 -255 30t-204 152t-101 236zM344 1095l168 139l167 -139h-335zM461 471l230 179q2 7 3.5 20t-0.5 52t-12 77 t-38.5 89.5t-73.5 94.5q84 0 164 -33.5t139 -99t74.5 -161t-29.5 -218.5h-457z" />
<glyph unicode="&#xeb;" horiz-adv-x="1024" d="M77 423q-19 131 28.5 252t148.5 203t231 104q-76 -81 -110 -188t-18 -221q19 -133 101 -236t204 -152t255 -30q6 0 9 1q-118 -126 -289 -151q-133 -19 -255 30t-204 152t-101 236zM344 1164q0 28 21 49t49 21t49 -21t21 -49t-20.5 -48.5t-49.5 -20.5t-49.5 20.5 t-20.5 48.5zM461 471l230 179q2 7 3.5 20t-0.5 52t-12 77t-38.5 89.5t-73.5 94.5q84 0 164 -33.5t139 -99t74.5 -161t-29.5 -218.5h-457zM540 1164q0 28 21 49t49 21t48.5 -20.5t20.5 -49.5q0 -28 -20.5 -48.5t-48.5 -20.5q-29 0 -49.5 20.5t-20.5 48.5z" />
<glyph unicode="&#xec;" horiz-adv-x="700" d="M102 1232h239v-199zM189 225v758h303v-820h208l-147 -115q-62 -48 -139 -48q-93 0 -159 66t-66 159z" />
<glyph unicode="&#xed;" horiz-adv-x="614" d="M102 225v758h303v-820h208l-147 -115q-62 -48 -139 -48q-93 0 -159 66t-66 159zM254 1033v199h238z" />
<glyph unicode="&#xee;" horiz-adv-x="628" d="M102 1093l168 139l167 -139h-335zM118 225v758h303v-820h208l-147 -115q-62 -48 -139 -48q-93 0 -159 66t-66 159z" />
<glyph unicode="&#xef;" horiz-adv-x="628" d="M102 1162q0 28 21 49t49 21t49 -21t21 -49t-20.5 -48.5t-49.5 -20.5t-49.5 20.5t-20.5 48.5zM118 225v758h303v-820h207l-146 -115q-62 -48 -139 -48q-93 0 -159 66t-66 159zM298 1162q0 28 21 49t49 21t48.5 -20.5t20.5 -49.5q0 -28 -20.5 -48.5t-48.5 -20.5 q-29 0 -49.5 20.5t-20.5 48.5z" />
<glyph unicode="&#xf1;" horiz-adv-x="1017" d="M72 0v744l302 239v-983h-302zM308 1206q2 39 30 67q-10 -11 -10 -26t10 -25q11 -11 27 -11l107 9q108 10 110 10q44 2 76 -30q33 -33 30 -78q-2 -39 -30 -67q10 11 10 26t-10 25q-11 11 -27 11l-108 -9q-108 -10 -110 -10q-43 -2 -75 30q-33 33 -30 78zM430 815l152 119 q63 49 139 49q93 0 159 -66t66 -159v-758h-303v817z" />
<glyph unicode="&#xf2;" horiz-adv-x="1110" d="M31 491q0 108 45 202t117 156.5t160.5 98t177.5 35.5q-70 -31 -114 -168.5t-44 -323.5q0 -178 47.5 -318.5t110.5 -172.5q-89 0 -177.5 35.5t-160.5 97.5t-117 156t-45 202zM339 1232h239v-199zM578 0q63 32 110.5 172.5t47.5 318.5q0 186 -44 323.5t-114 168.5 q89 0 177.5 -35.5t160.5 -98t117 -156.5t45 -202t-45 -202t-117 -156t-160.5 -97.5t-177.5 -35.5z" />
<glyph unicode="&#xf3;" horiz-adv-x="1110" d="M31 491q0 108 45 202t117 156.5t160.5 98t177.5 35.5q-70 -31 -114 -168.5t-44 -323.5q0 -178 47.5 -318.5t110.5 -172.5q-89 0 -177.5 35.5t-160.5 97.5t-117 156t-45 202zM531 1033v199h238zM578 0q63 32 110.5 172.5t47.5 318.5q0 186 -44 323.5t-114 168.5 q89 0 177.5 -35.5t160.5 -98t117 -156.5t45 -202t-45 -202t-117 -156t-160.5 -97.5t-177.5 -35.5z" />
<glyph unicode="&#xf4;" horiz-adv-x="1110" d="M31 491q0 108 45 202t117 156.5t160.5 98t177.5 35.5q-70 -31 -114 -168.5t-44 -323.5q0 -178 47.5 -318.5t110.5 -172.5q-89 0 -177.5 35.5t-160.5 97.5t-117 156t-45 202zM387 1093l167 139l168 -139h-335zM578 0q63 32 110.5 172.5t47.5 318.5q0 186 -44 323.5 t-114 168.5q89 0 177.5 -35.5t160.5 -98t117 -156.5t45 -202t-45 -202t-117 -156t-160.5 -97.5t-177.5 -35.5z" />
<glyph unicode="&#xf6;" horiz-adv-x="1110" d="M31 491q0 108 45 202t117 156.5t160.5 98t177.5 35.5q-70 -31 -114 -168.5t-44 -323.5q0 -178 47.5 -318.5t110.5 -172.5q-89 0 -177.5 35.5t-160.5 97.5t-117 156t-45 202zM387 1162q0 29 20.5 49.5t48.5 20.5t49 -21t21 -49t-20.5 -48.5t-49.5 -20.5q-28 0 -48.5 20.5 t-20.5 48.5zM578 0q63 32 110.5 172.5t47.5 318.5q0 186 -44 323.5t-114 168.5q89 0 177.5 -35.5t160.5 -98t117 -156.5t45 -202t-45 -202t-117 -156t-160.5 -97.5t-177.5 -35.5zM583 1162q0 29 20.5 49.5t48.5 20.5t49 -21t21 -49t-20.5 -48.5t-49.5 -20.5 q-28 0 -48.5 20.5t-20.5 48.5z" />
<glyph unicode="&#xf9;" d="M102 225v758h303v-817l213 2l-152 -120q-62 -48 -139 -48q-93 0 -159 66t-66 159zM420 1235h239v-199zM674 0v983h302v-983h-302z" />
<glyph unicode="&#xfa;" d="M102 225v758h303v-817l213 2l-152 -120q-62 -48 -139 -48q-93 0 -159 66t-66 159zM405 1036v199h239zM674 0v983h302v-983h-302z" />
<glyph unicode="&#xfb;" d="M102 225v758h303v-817l213 2l-152 -120q-62 -48 -139 -48q-93 0 -159 66t-66 159zM372 1095l167 140l168 -140h-335zM674 0v983h302v-983h-302z" />
<glyph unicode="&#xfc;" d="M102 225v758h303v-817l213 2l-152 -120q-62 -48 -139 -48q-93 0 -159 66t-66 159zM372 1165q0 28 20.5 48.5t49.5 20.5q28 0 48.5 -20t20.5 -49t-20.5 -49.5t-48.5 -20.5t-49 20.5t-21 49.5zM568 1165q0 29 20 49t49 20t49.5 -20.5t20.5 -48.5q0 -29 -20.5 -49.5 t-49.5 -20.5q-28 0 -48.5 20.5t-20.5 49.5zM674 0v983h302v-983h-302z" />
<glyph unicode="&#x152;" horiz-adv-x="1777" d="M72 617q0 108 37 207t97 171.5t135 127.5t153.5 82.5t149.5 27.5q-80 -44 -155 -223t-75 -393q0 -209 78.5 -389t151.5 -227q-71 0 -149.5 27.5t-153.5 82.5t-135 127.5t-97 171.5t-37 207zM712 1q73 47 151.5 227t78.5 389q0 214 -75 393t-155 223h573v-565h206v-101 h-206v-342q0 -93 -66 -158.5t-159 -65.5h-348zM1345 1l361 301v-301h-361zM1345 1234h361v-300z" />
<glyph unicode="&#x2000;" horiz-adv-x="771" />
<glyph unicode="&#x2001;" horiz-adv-x="1542" />
<glyph unicode="&#x2002;" horiz-adv-x="771" />
<glyph unicode="&#x2003;" horiz-adv-x="1542" />
<glyph unicode="&#x2004;" horiz-adv-x="514" />
<glyph unicode="&#x2005;" horiz-adv-x="385" />
<glyph unicode="&#x2006;" horiz-adv-x="257" />
<glyph unicode="&#x2007;" horiz-adv-x="257" />
<glyph unicode="&#x2008;" horiz-adv-x="192" />
<glyph unicode="&#x2009;" horiz-adv-x="308" />
<glyph unicode="&#x200a;" horiz-adv-x="85" />
<glyph unicode="&#x2010;" horiz-adv-x="651" d="M72 467v101h508v-101h-508z" />
<glyph unicode="&#x2011;" horiz-adv-x="651" d="M72 467v101h508v-101h-508z" />
<glyph unicode="&#x2012;" horiz-adv-x="651" d="M72 467v101h508v-101h-508z" />
<glyph unicode="&#x2013;" horiz-adv-x="1167" d="M72 467v101h1024v-101h-1024z" />
<glyph unicode="&#x2014;" horiz-adv-x="2191" d="M72 467v101h2048v-101h-2048z" />
<glyph unicode="&#x201c;" horiz-adv-x="808" d="M72 1054q0 66 39 115l95 121v-172h51q52 0 88.5 -36t36.5 -88t-36.5 -88.5t-88.5 -36.5q-77 0 -131 54.5t-54 130.5zM428 1054q0 66 39 115l95 121v-172h51q52 0 88.5 -36t36.5 -88t-36.5 -88.5t-88.5 -36.5q-77 0 -131 54.5t-54 130.5z" />
<glyph unicode="&#x201d;" horiz-adv-x="808" d="M72 1165q0 52 36.5 88.5t88.5 36.5q76 0 130.5 -54.5t54.5 -131.5q0 -64 -40 -115l-95 -120v171h-50q-52 0 -88.5 36.5t-36.5 88.5zM428 1165q0 52 36.5 88.5t88.5 36.5q76 0 130.5 -54.5t54.5 -131.5q0 -64 -40 -115l-95 -120v171h-50q-52 0 -88.5 36.5t-36.5 88.5z" />
<glyph unicode="&#x202f;" horiz-adv-x="308" />
<glyph unicode="&#x205f;" horiz-adv-x="385" />
<glyph unicode="&#x25fc;" horiz-adv-x="983" d="M0 0v983h983v-983h-983z" />
</font>
</defs>
</svg>
